<svg width="35" height="35" viewBox="0 0 35 35" fill="none" xmlns="http://www.w3.org/2000/svg">
<path d="M28.875 28H6.125C5.64375 28 5.25 28.3937 5.25 28.875V30.625C5.25 31.1062 5.64375 31.5 6.125 31.5H28.875C29.3562 31.5 29.75 31.1062 29.75 30.625V28.875C29.75 28.3937 29.3562 28 28.875 28ZM32.375 10.5C30.9258 10.5 29.75 11.6758 29.75 13.125C29.75 13.5133 29.8375 13.8742 29.9906 14.2078L26.0312 16.5813C25.1891 17.0844 24.1008 16.8 23.6141 15.9469L19.157 8.14844C19.7422 7.66719 20.125 6.94531 20.125 6.125C20.125 4.67578 18.9492 3.5 17.5 3.5C16.0508 3.5 14.875 4.67578 14.875 6.125C14.875 6.94531 15.2578 7.66719 15.843 8.14844L11.3859 15.9469C10.8992 16.8 9.80547 17.0844 8.96875 16.5813L5.01484 14.2078C5.1625 13.8797 5.25547 13.5133 5.25547 13.125C5.25547 11.6758 4.07969 10.5 2.63047 10.5C1.18125 10.5 0 11.6758 0 13.125C0 14.5742 1.17578 15.75 2.625 15.75C2.76719 15.75 2.90937 15.7281 3.04609 15.7063L7 26.25H28L31.9539 15.7063C32.0906 15.7281 32.2328 15.75 32.375 15.75C33.8242 15.75 35 14.5742 35 13.125C35 11.6758 33.8242 10.5 32.375 10.5Z" fill="#572C8C"/>
</svg>
