<svg width="1450" height="787" viewBox="0 0 1450 787" fill="none" xmlns="http://www.w3.org/2000/svg">
<circle cx="1333" cy="362" r="100" fill="url(#paint0_linear_2_72)"/>
<circle cx="1134" cy="637" r="150" fill="url(#paint1_linear_2_72)"/>
<circle cx="409" cy="262" r="50" fill="url(#paint2_linear_2_72)"/>
<circle cx="50" cy="50" r="50" fill="url(#paint3_linear_2_72)"/>
<circle cx="150" cy="437" r="50" fill="url(#paint4_linear_2_72)"/>
<circle cx="1400" cy="569" r="50" fill="url(#paint5_linear_2_72)"/>
<path d="M128.153 127.864C168.659 130.274 318.272 180.999 321.339 210.934C324.405 240.869 358.321 202.852 339.791 189.393C321.261 175.934 158.132 118.297 146.572 91.3227C135.012 64.3483 87.6481 125.454 128.153 127.864Z" fill="url(#paint6_linear_2_72)"/>
<path d="M379.295 346.536C357.293 366.403 257.347 421.095 242.392 409.304C227.437 397.514 226.897 432.038 242.481 428.471C258.065 424.904 368.081 366.311 386.101 372.388C404.121 378.464 401.296 326.669 379.295 346.536Z" fill="url(#paint7_linear_2_72)"/>
<defs>
<linearGradient id="paint0_linear_2_72" x1="1333" y1="262" x2="1333" y2="462" gradientUnits="userSpaceOnUse">
<stop stop-color="#E460DF"/>
<stop offset="1" stop-color="#5C1F81"/>
</linearGradient>
<linearGradient id="paint1_linear_2_72" x1="1134" y1="487" x2="1134" y2="787" gradientUnits="userSpaceOnUse">
<stop stop-color="#E460DF"/>
<stop offset="1" stop-color="#5C1F81"/>
</linearGradient>
<linearGradient id="paint2_linear_2_72" x1="409" y1="212" x2="409" y2="312" gradientUnits="userSpaceOnUse">
<stop stop-color="#E460DF"/>
<stop offset="1" stop-color="#5C1F81"/>
</linearGradient>
<linearGradient id="paint3_linear_2_72" x1="50" y1="0" x2="50" y2="100" gradientUnits="userSpaceOnUse">
<stop stop-color="#E460DF"/>
<stop offset="1" stop-color="#5C1F81"/>
</linearGradient>
<linearGradient id="paint4_linear_2_72" x1="150" y1="387" x2="150" y2="487" gradientUnits="userSpaceOnUse">
<stop stop-color="#E460DF"/>
<stop offset="1" stop-color="#5C1F81"/>
</linearGradient>
<linearGradient id="paint5_linear_2_72" x1="1400" y1="519" x2="1400" y2="619" gradientUnits="userSpaceOnUse">
<stop stop-color="#E460DF"/>
<stop offset="1" stop-color="#5C1F81"/>
</linearGradient>
<linearGradient id="paint6_linear_2_72" x1="228.827" y1="222.364" x2="228.52" y2="84.2594" gradientUnits="userSpaceOnUse">
<stop stop-color="#D257D2"/>
<stop offset="1" stop-color="#5C1F81"/>
</linearGradient>
<linearGradient id="paint7_linear_2_72" x1="285.078" y1="356.363" x2="346.922" y2="417.915" gradientUnits="userSpaceOnUse">
<stop stop-color="#D257D2"/>
<stop offset="1" stop-color="#5C1F81"/>
</linearGradient>
</defs>
</svg>
