<svg width="63" height="52" viewBox="0 0 63 52" fill="none" xmlns="http://www.w3.org/2000/svg">
<path d="M16.845 33L16.989 21.228L16.881 7.8C17.049 7.776 17.469 7.74 18.141 7.692C18.813 7.644 19.605 7.596 20.517 7.548C21.453 7.476 22.401 7.416 23.361 7.368C24.345 7.32 25.221 7.296 25.989 7.296C27.861 7.296 29.469 7.572 30.813 8.124C32.181 8.652 33.237 9.516 33.981 10.716C34.725 11.916 35.097 13.524 35.097 15.54C35.097 17.556 34.653 19.188 33.765 20.436C32.901 21.684 31.617 22.56 29.913 23.064V23.244L35.457 33H29.949L25.341 23.748L21.777 23.64V33H16.845ZM26.169 19.788C27.729 19.788 28.749 19.452 29.229 18.78C29.709 18.084 29.949 17.016 29.949 15.576C29.949 14.304 29.853 13.38 29.661 12.804C29.469 12.228 29.217 11.844 28.905 11.652C28.689 11.508 28.341 11.4 27.861 11.328C27.405 11.232 26.853 11.184 26.205 11.184C25.245 11.184 24.405 11.22 23.685 11.292C22.989 11.34 22.365 11.4 21.813 11.472L21.777 19.5C22.521 19.572 23.265 19.644 24.009 19.716C24.777 19.764 25.497 19.788 26.169 19.788Z" fill="#7D15AE"/>
<path d="M3.204 33V7.764H8.136L7.992 19.644L5.832 18.06H19.188L16.992 19.644L16.884 7.764H21.816V33H16.884L16.992 20.724L19.188 22.308H5.832L7.992 20.724L8.136 33H3.204Z" fill="#7D15AE"/>
<path d="M3.68 48.016L3.728 42.912L3.68 36.88H5.04L4.976 41.792L5.04 48L3.68 48.016ZM8.33475 48V38.688H9.23075L9.37475 39.6H9.43875C9.53475 39.5467 9.69475 39.4613 9.91875 39.344C10.1428 39.216 10.4041 39.088 10.7028 38.96C11.0014 38.8213 11.3161 38.7093 11.6468 38.624C11.9774 38.528 12.3028 38.48 12.6228 38.48C13.0814 38.48 13.4761 38.5867 13.8068 38.8C14.1481 39.0133 14.3881 39.3067 14.5268 39.68C14.9748 39.4027 15.4708 39.136 16.0148 38.88C16.5694 38.6133 17.1561 38.48 17.7748 38.48C18.3508 38.48 18.7988 38.6187 19.1188 38.896C19.4388 39.1733 19.6628 39.568 19.7908 40.08C19.9188 40.5813 19.9828 41.1787 19.9828 41.872V48H18.6548V42.32C18.6548 41.8187 18.6441 41.3707 18.6228 40.976C18.6014 40.5813 18.5321 40.2933 18.4148 40.112C18.3081 39.9413 18.1588 39.84 17.9668 39.808C17.7854 39.7653 17.6361 39.744 17.5188 39.744C17.2308 39.744 16.9321 39.7867 16.6228 39.872C16.3241 39.9467 16.0414 40.0427 15.7748 40.16C15.5081 40.2667 15.2841 40.368 15.1028 40.464C14.9321 40.56 14.8201 40.624 14.7668 40.656C14.7881 40.8267 14.8041 41.008 14.8148 41.2C14.8254 41.392 14.8308 41.5947 14.8308 41.808V48H13.5028V42.272C13.5028 41.664 13.4868 41.1947 13.4548 40.864C13.4334 40.5333 13.3641 40.2773 13.2468 40.096C13.1401 39.9467 13.0068 39.8507 12.8468 39.808C12.6868 39.7653 12.5321 39.744 12.3828 39.744C12.0201 39.744 11.6574 39.8027 11.2948 39.92C10.9321 40.0267 10.6068 40.1493 10.3188 40.288C10.0308 40.416 9.81208 40.512 9.66275 40.576V48H8.33475ZM22.7506 50.656V38.688H23.6466L23.8226 39.632H23.9186C24.1213 39.4827 24.356 39.3227 24.6226 39.152C24.8893 38.9707 25.1933 38.816 25.5346 38.688C25.8866 38.5493 26.2706 38.48 26.6866 38.48C27.2626 38.48 27.7586 38.6453 28.1746 38.976C28.6013 39.296 28.9266 39.8027 29.1506 40.496C29.3853 41.1787 29.5026 42.0693 29.5026 43.168C29.5026 44.2027 29.4066 45.0507 29.2146 45.712C29.0226 46.3627 28.7666 46.8747 28.4466 47.248C28.1266 47.6107 27.764 47.8613 27.3586 48C26.9533 48.1493 26.5426 48.224 26.1266 48.224C25.8706 48.224 25.6093 48.2133 25.3426 48.192C25.076 48.1707 24.8306 48.1387 24.6066 48.096C24.3933 48.064 24.2173 48.0373 24.0786 48.016V50.656H22.7506ZM26.4306 47.04C26.548 47.04 26.692 47.0293 26.8626 47.008C27.044 46.976 27.204 46.9013 27.3426 46.784C27.492 46.656 27.62 46.4587 27.7266 46.192C27.844 45.9147 27.9346 45.5147 27.9986 44.992C28.0626 44.4693 28.0946 43.776 28.0946 42.912C28.0946 42.208 28.0733 41.6587 28.0306 41.264C27.9986 40.8587 27.9453 40.56 27.8706 40.368C27.8066 40.1653 27.7266 40.0213 27.6306 39.936C27.5773 39.8827 27.4813 39.824 27.3426 39.76C27.2146 39.696 27.012 39.664 26.7346 39.664C26.3933 39.664 26.0413 39.7227 25.6786 39.84C25.3266 39.9467 25.0066 40.0693 24.7186 40.208C24.4306 40.336 24.2173 40.4427 24.0786 40.528V46.704C24.3026 46.768 24.6386 46.8427 25.0866 46.928C25.5346 47.0027 25.9826 47.04 26.4306 47.04ZM35.233 48.208C34.3477 48.208 33.649 48.0107 33.137 47.616C32.6357 47.2213 32.2783 46.6613 32.065 45.936C31.8517 45.2107 31.745 44.3467 31.745 43.344C31.745 42.3413 31.8517 41.4773 32.065 40.752C32.2783 40.0267 32.6357 39.4667 33.137 39.072C33.649 38.6773 34.3477 38.48 35.233 38.48C36.1183 38.48 36.8117 38.6773 37.313 39.072C37.825 39.4667 38.1877 40.0267 38.401 40.752C38.6143 41.4773 38.721 42.3413 38.721 43.344C38.721 44.3467 38.6143 45.2107 38.401 45.936C38.1877 46.6613 37.825 47.2213 37.313 47.616C36.8117 48.0107 36.1183 48.208 35.233 48.208ZM35.233 47.056C35.6383 47.056 35.9743 47.008 36.241 46.912C36.5183 46.816 36.737 46.64 36.897 46.384C37.0677 46.128 37.185 45.7547 37.249 45.264C37.3237 44.7733 37.361 44.1333 37.361 43.344C37.361 42.5547 37.3237 41.9147 37.249 41.424C37.185 40.9333 37.0677 40.56 36.897 40.304C36.737 40.0373 36.5183 39.8613 36.241 39.776C35.9743 39.68 35.6383 39.632 35.233 39.632C34.8277 39.632 34.4863 39.68 34.209 39.776C33.9423 39.8613 33.7237 40.0373 33.553 40.304C33.393 40.56 33.2757 40.9333 33.201 41.424C33.1263 41.9147 33.089 42.5547 33.089 43.344C33.089 44.1333 33.1263 44.7733 33.201 45.264C33.2757 45.7547 33.393 46.128 33.553 46.384C33.7237 46.64 33.9423 46.816 34.209 46.912C34.4863 47.008 34.8277 47.056 35.233 47.056ZM41.4598 48V38.688H42.3078L42.4838 39.632H42.5798C42.5798 39.632 42.6598 39.5733 42.8198 39.456C42.9904 39.3387 43.2091 39.2053 43.4758 39.056C43.7424 38.9067 44.0251 38.7733 44.3238 38.656C44.6331 38.5387 44.9211 38.48 45.1878 38.48C45.3478 38.48 45.4971 38.496 45.6358 38.528C45.7744 38.5493 45.8438 38.56 45.8438 38.56L45.7318 39.84C45.7318 39.84 45.6624 39.8347 45.5238 39.824C45.3851 39.8133 45.2571 39.808 45.1398 39.808C44.8411 39.808 44.5371 39.8507 44.2278 39.936C43.9291 40.0213 43.6518 40.128 43.3958 40.256C43.1398 40.384 42.9371 40.5067 42.7878 40.624V48H41.4598ZM50.2043 48.224C49.7456 48.224 49.3456 48.1493 49.0043 48C48.6629 47.84 48.3963 47.5413 48.2043 47.104C48.0229 46.656 47.9323 45.9947 47.9323 45.12V40.272H46.8763V39.44L47.9803 39.216L48.3323 37.04H49.2603V39.232H51.1163V40.304H49.2603V45.216C49.2603 45.8027 49.2763 46.2293 49.3083 46.496C49.3403 46.7627 49.4203 46.9333 49.5483 47.008C49.6869 47.072 49.9163 47.104 50.2363 47.104C50.4069 47.104 50.5563 47.104 50.6843 47.104C50.8123 47.0933 50.9136 47.088 50.9883 47.088C51.0629 47.0773 51.1003 47.072 51.1003 47.072V48.144C51.1003 48.144 51.0203 48.1547 50.8602 48.176C50.7003 48.208 50.4816 48.224 50.2043 48.224ZM55.9044 48.208C55.5097 48.208 55.131 48.1653 54.7684 48.08C54.4057 48.0053 54.0804 47.92 53.7924 47.824C53.5044 47.7173 53.275 47.6267 53.1044 47.552C52.9444 47.4773 52.8644 47.44 52.8644 47.44L53.2004 46.304C53.2004 46.304 53.2804 46.3413 53.4404 46.416C53.611 46.4907 53.835 46.5813 54.1124 46.688C54.3897 46.784 54.7044 46.8693 55.0564 46.944C55.4084 47.0187 55.771 47.056 56.1444 47.056C56.3577 47.056 56.555 47.04 56.7364 47.008C56.9177 46.9653 57.0617 46.896 57.1684 46.8C57.2857 46.6933 57.3924 46.5333 57.4884 46.32C57.5844 46.1067 57.6324 45.8507 57.6324 45.552C57.6324 45.104 57.5257 44.7627 57.3124 44.528C57.099 44.2933 56.8217 44.112 56.4804 43.984C56.139 43.856 55.7764 43.7387 55.3924 43.632C55.083 43.5467 54.779 43.4507 54.4804 43.344C54.1817 43.2373 53.9097 43.0933 53.6644 42.912C53.4297 42.7307 53.2377 42.4907 53.0884 42.192C52.9497 41.8827 52.8804 41.488 52.8804 41.008C52.8804 40.2507 53.1097 39.6427 53.5684 39.184C54.0377 38.7147 54.8217 38.48 55.9204 38.48C56.2937 38.48 56.651 38.5067 56.9924 38.56C57.3337 38.6027 57.6324 38.656 57.8884 38.72C58.155 38.7733 58.3524 38.8213 58.4804 38.864L58.2724 39.984C58.2724 39.984 58.1977 39.968 58.0484 39.936C57.9097 39.8933 57.7177 39.8507 57.4724 39.808C57.227 39.7653 56.9497 39.728 56.6404 39.696C56.331 39.6533 56.0057 39.632 55.6644 39.632C55.3444 39.632 55.0884 39.6533 54.8964 39.696C54.7044 39.728 54.5604 39.7813 54.4644 39.856C54.3684 39.9307 54.2884 40.0533 54.2244 40.224C54.1604 40.384 54.1284 40.576 54.1284 40.8C54.1284 41.248 54.251 41.584 54.4964 41.808C54.7524 42.032 55.0724 42.2027 55.4564 42.32C55.851 42.4373 56.2564 42.56 56.6724 42.688C56.9604 42.7733 57.2377 42.8747 57.5044 42.992C57.771 43.1093 58.011 43.264 58.2244 43.456C58.4484 43.648 58.619 43.8933 58.7364 44.192C58.8644 44.4907 58.9284 44.8587 58.9284 45.296C58.9284 46.16 58.667 46.864 58.1444 47.408C57.6324 47.9413 56.8857 48.208 55.9044 48.208Z" fill="black"/>
<path d="M53.5825 19.8333L53.4386 19.5814L48.8771 11.5982L53.5825 19.8333ZM53.5825 19.8333H53.8727M53.5825 19.8333H53.8727M53.8727 19.8333H58.8332C59.4925 19.8333 60.4471 20.1098 61.2374 20.5772C61.6281 20.8083 61.954 21.0719 62.177 21.3456C62.3996 21.6188 62.4999 21.8762 62.4999 22.1111C62.4999 22.346 62.3996 22.6034 62.177 22.8766C61.954 23.1503 61.6281 23.4139 61.2374 23.645C60.4471 24.1124 59.4925 24.3889 58.8332 24.3889H53.8727H53.5826L53.4386 24.6408L48.8767 32.624C48.8767 32.6241 48.8766 32.6241 48.8766 32.6241C48.8418 32.6849 48.7772 32.7222 48.7078 32.7222H45.8649C45.7361 32.7222 45.6425 32.5987 45.6781 32.4742L47.8062 25.0263L47.9883 24.3889H47.3254H42.861H42.611L42.461 24.5889L40.586 27.0889L40.5859 27.089C40.5493 27.1378 40.4919 27.1667 40.4304 27.1667H38.6948C38.5703 27.1667 38.4788 27.0519 38.5047 26.9318L39.8688 22.251L39.9096 22.1111L39.8688 21.9712L38.5047 17.2904C38.4788 17.1703 38.5703 17.0556 38.6948 17.0556H40.4304C40.4916 17.0556 40.5494 17.0845 40.5859 17.1332L40.586 17.1333L42.461 19.6333L42.611 19.8333H42.861H47.3254H47.9883L47.8062 19.196L45.6781 11.7476L45.6781 11.7476C45.6426 11.6234 45.7358 11.5 45.8649 11.5H48.7078H48.7078M53.8727 19.8333L48.7078 11.5M48.7078 11.5C48.7422 11.5 48.7759 11.5091 48.8057 11.5263C48.8353 11.5435 48.8599 11.5682 48.877 11.5979L48.7078 11.5Z" stroke="#7D15AE"/>
</svg>
