<svg width="289" height="35" viewBox="0 0 289 35" fill="none" xmlns="http://www.w3.org/2000/svg">
<path d="M78.2412 28V19.819H72.0582V28H68.0892V9.316H72.0582V16.687H78.2412V9.316H82.2102V28H78.2412ZM92.1447 20.683H90.1197V28H86.1507V9.316H91.9827C94.4847 9.316 96.3657 9.784 97.6257 10.72C98.8857 11.638 99.5157 13.033 99.5157 14.905C99.5157 16.129 99.2097 17.137 98.5977 17.929C98.0037 18.721 97.0767 19.396 95.8167 19.954L100.65 28H96.1407L92.1447 20.683ZM90.1197 17.875H92.1987C93.2607 17.875 94.0617 17.641 94.6017 17.173C95.1417 16.687 95.4117 15.931 95.4117 14.905C95.4117 13.951 95.1237 13.258 94.5477 12.826C93.9897 12.376 93.1077 12.151 91.9017 12.151H90.1197V17.875ZM120.478 9.316L120.046 12.205H113.296V17.065H119.182V19.927H113.296V25.084H120.532V28H109.327V9.316H120.478ZM128.131 13.258C130.147 13.258 131.875 13.834 133.315 14.986L131.857 17.173C130.651 16.417 129.463 16.039 128.293 16.039C127.663 16.039 127.177 16.156 126.835 16.39C126.493 16.624 126.322 16.939 126.322 17.335C126.322 17.623 126.394 17.866 126.538 18.064C126.7 18.262 126.988 18.451 127.402 18.631C127.834 18.811 128.473 19.027 129.319 19.279C130.831 19.693 131.956 20.251 132.694 20.953C133.432 21.637 133.801 22.582 133.801 23.788C133.801 24.742 133.522 25.57 132.964 26.272C132.424 26.974 131.686 27.514 130.75 27.892C129.814 28.252 128.77 28.432 127.618 28.432C126.412 28.432 125.314 28.252 124.324 27.892C123.334 27.514 122.488 27.001 121.786 26.353L123.676 24.247C124.882 25.183 126.16 25.651 127.51 25.651C128.23 25.651 128.797 25.516 129.211 25.246C129.643 24.958 129.859 24.571 129.859 24.085C129.859 23.707 129.778 23.41 129.616 23.194C129.454 22.978 129.157 22.78 128.725 22.6C128.293 22.402 127.618 22.177 126.7 21.925C125.26 21.529 124.189 20.971 123.487 20.251C122.803 19.513 122.461 18.604 122.461 17.524C122.461 16.714 122.695 15.985 123.163 15.337C123.631 14.689 124.288 14.185 125.134 13.825C125.998 13.447 126.997 13.258 128.131 13.258ZM144.858 27.325C144.336 27.685 143.742 27.955 143.076 28.135C142.428 28.333 141.78 28.432 141.132 28.432C139.656 28.414 138.54 27.991 137.784 27.163C137.028 26.335 136.65 25.12 136.65 23.518V16.39H134.517V13.69H136.65V10.558L140.484 10.099V13.69H143.778L143.4 16.39H140.484V23.437C140.484 24.121 140.601 24.616 140.835 24.922C141.069 25.228 141.429 25.381 141.915 25.381C142.401 25.381 142.941 25.219 143.535 24.895L144.858 27.325ZM150.39 13.69V28H146.556V13.69H150.39ZM148.446 6.319C149.13 6.319 149.688 6.535 150.12 6.967C150.57 7.381 150.795 7.912 150.795 8.56C150.795 9.208 150.57 9.748 150.12 10.18C149.688 10.594 149.13 10.801 148.446 10.801C147.762 10.801 147.204 10.594 146.772 10.18C146.34 9.748 146.124 9.208 146.124 8.56C146.124 7.912 146.34 7.381 146.772 6.967C147.204 6.535 147.762 6.319 148.446 6.319ZM157.74 28.432C156.57 28.432 155.661 28.099 155.013 27.433C154.365 26.749 154.041 25.786 154.041 24.544V7.993L157.875 7.561V24.436C157.875 25.066 158.136 25.381 158.658 25.381C158.946 25.381 159.198 25.327 159.414 25.219L160.197 27.946C159.459 28.27 158.64 28.432 157.74 28.432ZM168.055 13.258C170.197 13.258 171.871 13.933 173.077 15.283C174.283 16.615 174.886 18.469 174.886 20.845C174.886 22.357 174.607 23.689 174.049 24.841C173.509 25.975 172.717 26.857 171.673 27.487C170.647 28.117 169.432 28.432 168.028 28.432C165.886 28.432 164.203 27.766 162.979 26.434C161.773 25.084 161.17 23.221 161.17 20.845C161.17 19.333 161.44 18.01 161.98 16.876C162.538 15.724 163.33 14.833 164.356 14.203C165.4 13.573 166.633 13.258 168.055 13.258ZM168.055 16.12C167.083 16.12 166.354 16.507 165.868 17.281C165.4 18.037 165.166 19.225 165.166 20.845C165.166 22.465 165.4 23.662 165.868 24.436C166.354 25.192 167.074 25.57 168.028 25.57C168.982 25.57 169.693 25.192 170.161 24.436C170.647 23.662 170.89 22.465 170.89 20.845C170.89 19.225 170.656 18.037 170.188 17.281C169.72 16.507 169.009 16.12 168.055 16.12ZM184.474 28V9.316H195.328L194.896 12.205H188.443V17.497H194.059V20.386H188.443V28H184.474ZM200.593 13.69V28H196.759V13.69H200.593ZM198.649 6.319C199.333 6.319 199.891 6.535 200.323 6.967C200.773 7.381 200.998 7.912 200.998 8.56C200.998 9.208 200.773 9.748 200.323 10.18C199.891 10.594 199.333 10.801 198.649 10.801C197.965 10.801 197.407 10.594 196.975 10.18C196.543 9.748 196.327 9.208 196.327 8.56C196.327 7.912 196.543 7.381 196.975 6.967C197.407 6.535 197.965 6.319 198.649 6.319ZM212.938 27.325C212.416 27.685 211.822 27.955 211.156 28.135C210.508 28.333 209.86 28.432 209.212 28.432C207.736 28.414 206.62 27.991 205.864 27.163C205.108 26.335 204.73 25.12 204.73 23.518V16.39H202.597V13.69H204.73V10.558L208.564 10.099V13.69H211.858L211.48 16.39H208.564V23.437C208.564 24.121 208.681 24.616 208.915 24.922C209.149 25.228 209.509 25.381 209.995 25.381C210.481 25.381 211.021 25.219 211.615 24.895L212.938 27.325ZM222.628 13.258C223.888 13.258 224.869 13.645 225.571 14.419C226.273 15.175 226.624 16.228 226.624 17.578V28H222.79V18.226C222.79 17.452 222.655 16.912 222.385 16.606C222.133 16.282 221.746 16.12 221.224 16.12C220.684 16.12 220.189 16.291 219.739 16.633C219.307 16.957 218.884 17.452 218.47 18.118V28H214.636V13.69H217.957L218.254 15.499C218.848 14.761 219.496 14.203 220.198 13.825C220.918 13.447 221.728 13.258 222.628 13.258ZM242.368 20.521C242.368 20.701 242.341 21.196 242.287 22.006H233.35C233.476 23.302 233.827 24.22 234.403 24.76C234.979 25.3 235.762 25.57 236.752 25.57C237.364 25.57 237.94 25.471 238.48 25.273C239.02 25.075 239.605 24.76 240.235 24.328L241.828 26.488C240.226 27.784 238.417 28.432 236.401 28.432C234.151 28.432 232.423 27.757 231.217 26.407C230.011 25.057 229.408 23.23 229.408 20.926C229.408 19.468 229.66 18.163 230.164 17.011C230.686 15.841 231.433 14.923 232.405 14.257C233.395 13.591 234.565 13.258 235.915 13.258C237.949 13.258 239.533 13.897 240.667 15.175C241.801 16.453 242.368 18.235 242.368 20.521ZM238.561 19.441C238.561 17.065 237.706 15.877 235.996 15.877C235.204 15.877 234.583 16.174 234.133 16.768C233.701 17.344 233.44 18.289 233.35 19.603H238.561V19.441ZM249.895 13.258C251.911 13.258 253.639 13.834 255.079 14.986L253.621 17.173C252.415 16.417 251.227 16.039 250.057 16.039C249.427 16.039 248.941 16.156 248.599 16.39C248.257 16.624 248.086 16.939 248.086 17.335C248.086 17.623 248.158 17.866 248.302 18.064C248.464 18.262 248.752 18.451 249.166 18.631C249.598 18.811 250.237 19.027 251.083 19.279C252.595 19.693 253.72 20.251 254.458 20.953C255.196 21.637 255.565 22.582 255.565 23.788C255.565 24.742 255.286 25.57 254.728 26.272C254.188 26.974 253.45 27.514 252.514 27.892C251.578 28.252 250.534 28.432 249.382 28.432C248.176 28.432 247.078 28.252 246.088 27.892C245.098 27.514 244.252 27.001 243.55 26.353L245.44 24.247C246.646 25.183 247.924 25.651 249.274 25.651C249.994 25.651 250.561 25.516 250.975 25.246C251.407 24.958 251.623 24.571 251.623 24.085C251.623 23.707 251.542 23.41 251.38 23.194C251.218 22.978 250.921 22.78 250.489 22.6C250.057 22.402 249.382 22.177 248.464 21.925C247.024 21.529 245.953 20.971 245.251 20.251C244.567 19.513 244.225 18.604 244.225 17.524C244.225 16.714 244.459 15.985 244.927 15.337C245.395 14.689 246.052 14.185 246.898 13.825C247.762 13.447 248.761 13.258 249.895 13.258ZM262.604 13.258C264.62 13.258 266.348 13.834 267.788 14.986L266.33 17.173C265.124 16.417 263.936 16.039 262.766 16.039C262.136 16.039 261.65 16.156 261.308 16.39C260.966 16.624 260.795 16.939 260.795 17.335C260.795 17.623 260.867 17.866 261.011 18.064C261.173 18.262 261.461 18.451 261.875 18.631C262.307 18.811 262.946 19.027 263.792 19.279C265.304 19.693 266.429 20.251 267.167 20.953C267.905 21.637 268.274 22.582 268.274 23.788C268.274 24.742 267.995 25.57 267.437 26.272C266.897 26.974 266.159 27.514 265.223 27.892C264.287 28.252 263.243 28.432 262.091 28.432C260.885 28.432 259.787 28.252 258.797 27.892C257.807 27.514 256.961 27.001 256.259 26.353L258.149 24.247C259.355 25.183 260.633 25.651 261.983 25.651C262.703 25.651 263.27 25.516 263.684 25.246C264.116 24.958 264.332 24.571 264.332 24.085C264.332 23.707 264.251 23.41 264.089 23.194C263.927 22.978 263.63 22.78 263.198 22.6C262.766 22.402 262.091 22.177 261.173 21.925C259.733 21.529 258.662 20.971 257.96 20.251C257.276 19.513 256.934 18.604 256.934 17.524C256.934 16.714 257.168 15.985 257.636 15.337C258.104 14.689 258.761 14.185 259.607 13.825C260.471 13.447 261.47 13.258 262.604 13.258Z" fill="black"/>
<path d="M48.875 28H26.125C25.6437 28 25.25 28.3937 25.25 28.875V30.625C25.25 31.1062 25.6437 31.5 26.125 31.5H48.875C49.3562 31.5 49.75 31.1062 49.75 30.625V28.875C49.75 28.3937 49.3562 28 48.875 28ZM52.375 10.5C50.9258 10.5 49.75 11.6758 49.75 13.125C49.75 13.5133 49.8375 13.8742 49.9906 14.2078L46.0312 16.5812C45.1891 17.0844 44.1008 16.8 43.6141 15.9469L39.157 8.14844C39.7422 7.66719 40.125 6.94531 40.125 6.125C40.125 4.67578 38.9492 3.5 37.5 3.5C36.0508 3.5 34.875 4.67578 34.875 6.125C34.875 6.94531 35.2578 7.66719 35.843 8.14844L31.3859 15.9469C30.8992 16.8 29.8055 17.0844 28.9687 16.5812L25.0148 14.2078C25.1625 13.8797 25.2555 13.5133 25.2555 13.125C25.2555 11.6758 24.0797 10.5 22.6305 10.5C21.1812 10.5 20 11.6758 20 13.125C20 14.5742 21.1758 15.75 22.625 15.75C22.7672 15.75 22.9094 15.7281 23.0461 15.7062L27 26.25H48L51.9539 15.7062C52.0906 15.7281 52.2328 15.75 52.375 15.75C53.8242 15.75 55 14.5742 55 13.125C55 11.6758 53.8242 10.5 52.375 10.5Z" fill="#572C8C"/>
</svg>
