<svg width="44" height="45" viewBox="0 0 44 45" fill="none" xmlns="http://www.w3.org/2000/svg">
<path d="M28.256 1.84717V5.75342C28.256 6.39795 28.7833 6.92529 29.4279 6.92529H37.631V15.1284C37.631 15.7729 38.1583 16.3003 38.8029 16.3003H42.7091C43.3536 16.3003 43.881 15.7729 43.881 15.1284V3.01904C43.881 1.72021 42.8361 0.675293 41.5372 0.675293H29.4279C28.7833 0.675293 28.256 1.20264 28.256 1.84717ZM15.756 43.2534V39.3472C15.756 38.7026 15.2286 38.1753 14.5841 38.1753H6.38098V29.9722C6.38098 29.3276 5.85364 28.8003 5.20911 28.8003H1.30286C0.658325 28.8003 0.130981 29.3276 0.130981 29.9722V42.0815C0.130981 43.3804 1.1759 44.4253 2.47473 44.4253H14.5841C15.2286 44.4253 15.756 43.8979 15.756 43.2534Z" fill="#F8C304"/>
<path d="M15.2162 17.3795L18.0614 21.4429L14.1381 29.7587C14.086 29.8695 14.064 29.9921 14.0744 30.1141C14.0849 30.2361 14.1274 30.3532 14.1976 30.4536L15.8282 32.7823C16.0929 33.1602 16.6454 33.1798 16.9361 32.8215L21.8168 26.8061L24.3775 30.4632L23.405 33.433C23.3369 33.6407 23.3709 33.8686 23.4962 34.0474L24.4917 35.4692C24.7509 35.8393 25.2888 35.8675 25.5849 35.5261L28.6445 31.7142L33.273 30.1428C33.695 29.9813 33.8525 29.4662 33.5934 29.0961L32.5978 27.6743C32.4724 27.4952 32.2701 27.3856 32.0517 27.3786L28.9283 27.2766L26.3676 23.6196L33.6892 21.0908C34.1253 20.9402 34.2962 20.4141 34.0316 20.0362L32.401 17.7074C32.2581 17.5033 32.0167 17.3916 31.7687 17.4142L22.6123 18.2563L19.767 14.1929C18.887 12.9361 16.3585 11.493 15.1017 12.3731C13.8449 13.2531 14.3361 16.1227 15.2162 17.3795Z" fill="#F8C304"/>
</svg>
